<svg width="1600" height="900" viewBox="0 0 1600 900" xmlns="http://www.w3.org/2000/svg" role="img" aria-labelledby="title desc">
  <title id="title">DreamProject hero ambient illustration</title>
  <desc id="desc">Soft gradients and abstract shapes inspired by the DreamProject palette</desc>
  <defs>
    <linearGradient id="heroGradient" x1="0%" y1="0%" x2="100%" y2="0%">
      <stop offset="0%" stop-color="#fce4ec" />
      <stop offset="40%" stop-color="#f6fbff" />
      <stop offset="100%" stop-color="#d0eaff" />
    </linearGradient>
    <radialGradient id="heroOrb" cx="50%" cy="50%" r="50%">
      <stop offset="0%" stop-color="#ffdede" />
      <stop offset="100%" stop-color="#ffc3a0" stop-opacity="0" />
    </radialGradient>
  </defs>
  <rect width="1600" height="900" fill="url(#heroGradient)" />
  <circle cx="400" cy="200" r="260" fill="url(#heroOrb)" />
  <circle cx="1300" cy="650" r="320" fill="url(#heroOrb)" />
  <path d="M0,700 C250,620 350,620 600,700 C850,780 950,780 1200,700 C1450,620 1550,620 1600,700 L1600,900 L0,900 Z" fill="#ffffff" fill-opacity="0.8" />
  <path d="M0,640 C200,560 360,560 560,640 C760,720 920,720 1120,640 C1320,560 1480,560 1600,640" stroke="#f7c9d4" stroke-width="8" stroke-linecap="round" fill="none" />
</svg>

